<?xml version="1.0" encoding="utf-8"?><svg viewBox="0 0 80 40" xmlns="http://www.w3.org/2000/svg" xmlns:xlink="http://www.w3.org/1999/xlink"><style>:root>svg{display:none}:root>svg:target{display:block}</style><svg viewBox="0 0 18 12" id="icon-burger" xmlns="http://www.w3.org/2000/svg"><path d="M0 12h18v-2H0v2zm0-5h18V5H0v2zm0-7v2h18V0H0z"/></svg><svg viewBox="0 0 24 24" id="icon-cab" xmlns="http://www.w3.org/2000/svg"><path d="M18.097 0H5.903a2.134 2.134 0 00-2.132 2.132v18.195c0 1.175.957 2.132 2.132 2.132h.265v.832a.71.71 0 101.419 0v-.832h8.826v.832a.71.71 0 001.42 0v-.832h.264a2.134 2.134 0 002.131-2.132V2.132A2.134 2.134 0 0018.098 0zM5.19 2.132c0-.393.32-.713.713-.713h5.388v15.31h-6.1V2.132zm13.62 18.195c0 .393-.32.713-.713.713H5.903a.714.714 0 01-.713-.713v-2.18h13.62v2.18zm0-3.598h-6.1V1.419h5.387c.393 0 .713.32.713.713v14.597z"/><path d="M10.117 7.38a.71.71 0 00-.71.71v1.968a.71.71 0 001.419 0V8.09a.71.71 0 00-.71-.71zM13.884 7.38a.71.71 0 00-.71.71v1.968a.71.71 0 101.419 0V8.09a.71.71 0 00-.71-.71zM12.804 18.884h-1.608a.71.71 0 100 1.42h1.608a.71.71 0 100-1.42z"/></svg><svg viewBox="0 0 24 20" id="icon-chair" xmlns="http://www.w3.org/2000/svg"><path d="M21.89 6.484c-.754 0-1.469.171-2.109.476V5.78A4.927 4.927 0 0014.86.86H9.141a4.927 4.927 0 00-4.922 4.922V6.96a4.892 4.892 0 00-2.11-.476C.946 6.484 0 7.431 0 8.594c0 1.163.946 2.11 2.11 2.11.387 0 .703.314.703.702v5.625c0 .389.314.703.703.703h.703v.703a.703.703 0 001.406 0v-.703h12.75v.703a.703.703 0 001.406 0v-.703h.703a.703.703 0 00.703-.703v-5.625c0-.388.316-.703.704-.703 1.163 0 2.109-.946 2.109-2.11 0-1.162-.946-2.109-2.11-2.109zM9.14 2.266h5.72a3.52 3.52 0 013.515 3.515v2.184c-.38.388-.695.837-.93 1.332H6.554a4.944 4.944 0 00-.93-1.332V5.781a3.52 3.52 0 013.516-3.515zm7.829 9.14v.703H7.03v-.703c0-.239-.017-.473-.05-.703h10.038c-.033.23-.05.465-.05.703zm-9.938 2.11h9.938v2.812H7.03v-2.812zM2.11 9.296a.704.704 0 010-1.405 3.52 3.52 0 013.516 3.515v4.922H4.219v-4.922c0-1.163-.947-2.11-2.11-2.11zm19.782 0c-1.163 0-2.11.947-2.11 2.11v4.922h-1.406v-4.922a3.52 3.52 0 013.516-3.515.704.704 0 010 1.406z"/></svg><svg viewBox="0 0 16 16" id="icon-cross" xmlns="http://www.w3.org/2000/svg"><path d="M2.226.811A1 1 0 00.81 2.225L6.586 8 .812 13.775a1 1 0 101.414 1.414L8 9.414l5.775 5.775a1 1 0 001.414-1.414L9.415 8l5.774-5.775A1 1 0 1013.775.811L8 6.586 2.226.81z"/></svg><svg viewBox="0 0 24 18" id="icon-hanger" xmlns="http://www.w3.org/2000/svg"><path d="M22.74 13.21L12.703 7.394v-.433c0-.493.282-.952.735-1.198a3.01 3.01 0 001.585-2.779A3.036 3.036 0 0012.117.078a3 3 0 00-2.215.843 3 3 0 00-.927 2.18.703.703 0 001.406 0c0-.444.177-.858.497-1.167.32-.307.74-.468 1.186-.45.84.031 1.521.714 1.553 1.553a1.613 1.613 0 01-.848 1.49 2.777 2.777 0 00-1.472 2.434v.433L1.26 13.21A2.535 2.535 0 000 15.397a2.53 2.53 0 002.527 2.527h18.946A2.53 2.53 0 0024 15.397c0-.898-.483-1.736-1.26-2.187zm-1.267 3.308H2.527a1.122 1.122 0 01-.562-2.09L12 8.611l10.035 5.815a1.122 1.122 0 01-.562 2.091z"/></svg><svg fill="none" viewBox="0 0 20 20" id="icon-inst" xmlns="http://www.w3.org/2000/svg"><path fill-rule="evenodd" clip-rule="evenodd" d="M10.001.4C7.394.4 7.067.412 6.043.458c-1.022.047-1.72.209-2.33.446a4.7 4.7 0 00-1.701 1.107 4.713 4.713 0 00-1.108 1.7c-.238.611-.4 1.309-.446 2.33C.412 7.067.4 7.394.4 10.002c0 2.607.012 2.933.058 3.957.047 1.022.209 1.72.446 2.33a4.704 4.704 0 001.107 1.7 4.7 4.7 0 001.7 1.108c.611.238 1.309.4 2.33.446 1.025.047 1.352.058 3.959.058s2.934-.011 3.957-.058c1.022-.047 1.72-.208 2.332-.446a4.697 4.697 0 001.7-1.108 4.713 4.713 0 001.107-1.7c.236-.61.398-1.309.446-2.33.046-1.024.058-1.35.058-3.958 0-2.607-.012-2.934-.058-3.958-.048-1.022-.21-1.72-.446-2.33a4.712 4.712 0 00-1.108-1.7 4.692 4.692 0 00-1.7-1.108c-.612-.237-1.31-.4-2.332-.446C12.932.412 12.606.4 9.998.4h.003zm-.86 1.73H10c2.564 0 2.867.009 3.88.055.936.042 1.444.199 1.782.33.448.174.767.382 1.103.718.336.336.544.656.719 1.104.131.338.288.846.33 1.782.046 1.012.056 1.316.056 3.878 0 2.562-.01 2.866-.056 3.878-.043.936-.199 1.444-.33 1.782a2.968 2.968 0 01-.719 1.103 2.969 2.969 0 01-1.103.718c-.338.132-.846.288-1.782.33-1.012.047-1.316.057-3.88.057-2.563 0-2.867-.01-3.879-.056-.936-.043-1.444-.2-1.782-.331a2.973 2.973 0 01-1.104-.718 2.975 2.975 0 01-.719-1.104c-.131-.338-.288-.846-.33-1.782-.046-1.011-.056-1.316-.056-3.88 0-2.563.01-2.865.056-3.877.042-.936.199-1.444.33-1.783.174-.448.383-.768.719-1.104a2.98 2.98 0 011.104-.718c.338-.132.846-.288 1.782-.331.886-.04 1.229-.052 3.018-.054v.002zm5.983 1.595a1.152 1.152 0 100 2.304 1.152 1.152 0 000-2.305zm-5.123 1.344a4.93 4.93 0 10.001 9.86 4.93 4.93 0 000-9.86zm0 1.732a3.2 3.2 0 110 6.4 3.2 3.2 0 010-6.4z" fill="#fff"/></svg><svg viewBox="0 0 24 24" id="icon-interior" xmlns="http://www.w3.org/2000/svg"><path d="M23.297 12.75h-8.482c.248-.44.433-.913.55-1.406h2.26a.703.703 0 00.703-.703V7.828a.703.703 0 00-.703-.703h-2.11v-.797a.703.703 0 00-.703-.703H9.189a.703.703 0 00-.704.703v3.73c0 .958.244 1.879.7 2.692H.705a.703.703 0 000 1.406h4.699a9.122 9.122 0 00-2.544 6.328v2.813c0 .388.315.703.704.703h2.812a.703.703 0 00.703-.703v-2.11h9.844v2.11c0 .388.315.703.703.703h2.813a.703.703 0 00.703-.703v-2.813a9.122 9.122 0 00-2.544-6.328h4.7a.703.703 0 000-1.406zm-6.375-4.219v1.406h-1.406V8.531h1.406zM9.89 10.058V7.031h4.218v3.027c0 1-.355 1.946-1.007 2.692h-2.204a4.068 4.068 0 01-1.007-2.692zm-2.76 9.723a4.936 4.936 0 011.462-2.812h6.814a4.936 4.936 0 011.462 2.812H7.131zm12.603.703v2.11h-1.406v-2.11c0-1.805-.796-3.535-2.184-4.748a.703.703 0 00-.463-.174H8.319a.703.703 0 00-.463.174c-1.388 1.213-2.184 2.944-2.184 4.748v2.11H4.266v-2.11a7.724 7.724 0 013.287-6.328h8.895a7.724 7.724 0 013.286 6.328zM18.328.703a.704.704 0 01-.703.703h-4.219c-1.163 0-2.11.947-2.11 2.11a.703.703 0 101.407 0c0-.388.316-.704.703-.704h4.219c1.163 0 2.11-.946 2.11-2.109a.703.703 0 00-1.407 0z"/></svg><svg viewBox="0 0 24 24" id="icon-kitchen" xmlns="http://www.w3.org/2000/svg"><path d="M23.297 3.844h-9.375a.703.703 0 00-.703.703v6.797H.703a.703.703 0 00-.703.703v11.25c0 .388.315.703.703.703h22.594a.703.703 0 00.703-.703V4.547a.703.703 0 00-.703-.703zM14.625 5.25h7.969v6.094h-7.969V5.25zm-13.219 7.5H13.22v1.406H1.406V12.75zm0 2.813H9.47v7.03H1.406v-7.03zm9.469 0h2.344v7.03h-2.344v-7.03zm3.75 7.03V12.75h7.969v9.844h-7.969z"/><path d="M.703 9.375h10.313a.703.703 0 00.703-.703V6.797c0-.205-.09-.4-.246-.534L8.437 3.661V.703A.703.703 0 007.734 0h-3.75a.703.703 0 00-.703.703v2.958L.246 6.263A.703.703 0 000 6.797v1.875c0 .388.315.703.703.703zm3.985-7.969H7.03v1.875H4.688V1.406zM1.405 7.12l2.838-2.433h3.23l2.838 2.433v.849H1.406V7.12zM16.734 7.125a.703.703 0 00-.703.703v1.406a.703.703 0 001.407 0V7.828a.703.703 0 00-.704-.703zM16.734 14.156a.703.703 0 00-.703.703v1.407a.703.703 0 001.407 0v-1.407a.703.703 0 00-.704-.703zM7.36 17.672a.703.703 0 00-.704.703v1.406a.703.703 0 101.407 0v-1.406a.703.703 0 00-.704-.703z"/></svg><svg fill="none" viewBox="0 0 18 18" id="icon-phone" xmlns="http://www.w3.org/2000/svg"><path d="M16.23 12.26l-2.54-.29a1.99 1.99 0 00-1.64.57l-1.84 1.84a15.045 15.045 0 01-6.59-6.59l1.85-1.85c.43-.43.64-1.03.57-1.64l-.29-2.52A2.001 2.001 0 003.76.01H2.03C.9.01-.04.95.03 2.08c.53 8.54 7.36 15.36 15.89 15.89 1.13.07 2.07-.87 2.07-2v-1.73c.01-1.01-.75-1.86-1.76-1.98z" fill="#1A1A1A"/></svg><svg viewBox="0 0 18 18" id="icon-search" xmlns="http://www.w3.org/2000/svg"><path d="M12.5 11h-.79l-.28-.27A6.471 6.471 0 0013 6.5 6.5 6.5 0 106.5 13c1.61 0 3.09-.59 4.23-1.57l.27.28v.79l5 4.99L17.49 16l-4.99-5zm-6 0C4.01 11 2 8.99 2 6.5S4.01 2 6.5 2 11 4.01 11 6.5 8.99 11 6.5 11z"/></svg><svg viewBox="0 0 24 24" id="icon-tv" xmlns="http://www.w3.org/2000/svg"><path d="M23.297 14.813h-7.735v-1.407h4.922a.703.703 0 00.703-.703V2.86a.703.703 0 00-.703-.703H3.516a.703.703 0 00-.704.703v9.844c0 .388.315.703.704.703h4.921v1.406H.704a.703.703 0 00-.703.704v5.625c0 .388.315.703.703.703h5.625a.703.703 0 00.703-.703v-2.11h9.938v2.11c0 .388.315.703.703.703h5.625A.703.703 0 0024 21.14v-5.625a.703.703 0 00-.703-.704zM4.219 3.563H19.78V12H4.22V3.562zm5.625 9.843h4.312v1.406H9.844v-1.406zm-4.219 7.031H1.406V16.22h4.219v4.218zm1.406-2.812v-1.406h9.938v1.406H7.03zm15.563 2.813h-4.219v-4.22h4.219v4.22z"/><path d="M3.516 19.031a.703.703 0 100-1.406.703.703 0 000 1.406zM20.484 19.031a.703.703 0 100-1.406.703.703 0 000 1.406z"/></svg><svg fill="none" viewBox="0 0 80 40" id="logo-dark" xmlns="http://www.w3.org/2000/svg"><path d="M12.08 39.8l-.02-7.527-3.67 6.206H7.102l-3.67-6.066V39.8H.735V27.208h2.38l4.682 7.827 4.602-7.827h2.38l.02 12.592H12.08zM27.553 37.458V39.8h-9.66V27.207h9.422v2.343h-6.546v2.722h5.792v2.263h-5.792v2.903h6.784v.02zM29.873 27.207h10.058v2.323H32.73v2.582h3.451c3.016 0 4.622 1.301 4.622 3.704 0 2.522-1.825 3.964-5.038 3.964h-5.911V27.207h.02zm5.753 10.43c1.488 0 2.281-.6 2.281-1.721s-.773-1.662-2.281-1.662H32.75v3.384h2.876zM52.666 37.458V39.8h-9.66V27.207h9.421v2.343h-6.546v2.722h5.793v2.263H45.88v2.903h6.785v.02zM66.71 27.207V39.8h-2.837V29.59h-4.265l-.08 2.622C59.37 37.157 58.677 40 55.76 40c-.436 0-.893-.08-1.428-.2l.178-2.463c.179.06.337.08.516.08 1.468 0 1.825-1.861 1.964-5.085l.178-5.105h9.542v-.02zM80 35.416c0 2.902-1.924 4.384-5.138 4.384H69.23V27.207h2.876v4.144h3.174c3.015 0 4.721 1.342 4.721 4.065zm-2.916.04c0-1.382-.893-1.963-2.38-1.963h-2.599v4.145h2.599c1.487 0 2.38-.761 2.38-2.182zM31.837 2.663l-2.876 4.024-2.202.36-.952 1.361c-.377-.26-.774-.5-1.21-.7l1.051-1.482-.357-2.222L28.187 0l.972 2.523 2.678.14z" fill="#359C31"/><path d="M12.358 9.93H7.796v11.672H4.543V9.93H0V7.207h12.358V9.93z" fill="#1A1A1A"/><path d="M25.807 8.428l-1.746 2.523c.893.82 1.429 2.022 1.429 3.463 0 2.743-1.924 4.605-4.463 4.605-2.54 0-4.464-1.862-4.464-4.604 0-2.743 1.924-4.605 4.463-4.605.655 0 1.27.12 1.825.36l1.746-2.442a8.573 8.573 0 00-3.57-.761c-4.503 0-7.796 3.163-7.796 7.448 0 4.284 3.293 7.447 7.795 7.447 4.483 0 7.796-3.143 7.796-7.447 0-2.543-1.15-4.665-3.015-5.986z" fill="#359C31"/><path d="M42.787 7.207v14.395h-3.253v-5.186c-1.25.46-2.38.681-3.432.681-3.828 0-5.93-1.902-5.93-5.385V7.207h3.252v4.124c0 1.982 1.071 2.983 3.055 2.983 1.071 0 2.142-.22 3.055-.64V7.207h3.253zM59.39 7.207v14.395h-3.293v-5.906H49.63v5.906h-3.292V7.207h3.292v5.666h6.467V7.207h3.293zM61.949 14.415c0-4.285 3.293-7.448 7.796-7.448 4.483 0 7.795 3.143 7.795 7.448 0 4.304-3.312 7.447-7.795 7.447-4.483-.02-7.796-3.183-7.796-7.447zm12.259 0c0-2.743-1.904-4.605-4.463-4.605-2.56 0-4.464 1.862-4.464 4.604 0 2.743 1.905 4.605 4.464 4.605 2.558 0 4.463-1.882 4.463-4.604zM21.029 15.988c.902 0 1.634-.706 1.634-1.577 0-.87-.732-1.577-1.634-1.577-.903 0-1.635.706-1.635 1.577 0 .87.732 1.577 1.635 1.577z" fill="#1A1A1A"/></svg><svg fill="none" viewBox="0 0 80 40" id="logo-light" xmlns="http://www.w3.org/2000/svg"><path d="M12.08 39.8l-.02-7.527-3.67 6.206H7.102l-3.67-6.066V39.8H.735V27.208h2.38l4.682 7.827 4.602-7.827h2.38l.02 12.592H12.08zM27.553 37.458V39.8h-9.66V27.207h9.422v2.343h-6.546v2.722h5.792v2.263h-5.792v2.903h6.784v.02zM29.873 27.207h10.058v2.323H32.73v2.582h3.451c3.016 0 4.622 1.301 4.622 3.704 0 2.522-1.825 3.964-5.038 3.964h-5.911V27.207h.02zm5.753 10.43c1.488 0 2.281-.6 2.281-1.721s-.773-1.662-2.281-1.662H32.75v3.384h2.876zM52.666 37.458V39.8h-9.66V27.207h9.422v2.343h-6.546v2.722h5.792v2.263h-5.792v2.903h6.784v.02zM66.71 27.207V39.8h-2.837V29.59h-4.265l-.08 2.622C59.37 37.157 58.677 40 55.76 40c-.436 0-.893-.08-1.428-.2l.178-2.463c.179.06.337.08.516.08 1.468 0 1.825-1.861 1.964-5.085l.178-5.105h9.542v-.02zM80 35.416c0 2.902-1.924 4.384-5.138 4.384H69.23V27.207h2.876v4.144h3.174c3.015 0 4.721 1.342 4.721 4.065zm-2.916.04c0-1.382-.893-1.963-2.38-1.963h-2.599v4.145h2.599c1.487 0 2.38-.761 2.38-2.182zM31.837 2.663l-2.876 4.024-2.202.36-.952 1.361c-.377-.26-.774-.5-1.21-.7l1.051-1.482-.357-2.222L28.187 0l.972 2.523 2.678.14z" fill="#359C31"/><path d="M12.358 9.93H7.796v11.672H4.543V9.93H0V7.207h12.358V9.93z" fill="#fff"/><path d="M25.807 8.428l-1.746 2.523c.893.82 1.429 2.022 1.429 3.463 0 2.743-1.924 4.605-4.463 4.605-2.54 0-4.464-1.862-4.464-4.604 0-2.743 1.924-4.605 4.463-4.605.655 0 1.27.12 1.825.36l1.746-2.442a8.573 8.573 0 00-3.57-.761c-4.503 0-7.796 3.163-7.796 7.448 0 4.284 3.293 7.447 7.795 7.447 4.483 0 7.796-3.143 7.796-7.447 0-2.543-1.15-4.665-3.015-5.986z" fill="#359C31"/><path d="M42.787 7.207v14.395h-3.253v-5.186c-1.25.46-2.38.681-3.432.681-3.828 0-5.93-1.902-5.93-5.385V7.207h3.252v4.124c0 1.982 1.071 2.983 3.055 2.983 1.071 0 2.142-.22 3.055-.64V7.207h3.253zM59.39 7.207v14.395h-3.293v-5.906H49.63v5.906h-3.292V7.207h3.292v5.666h6.467V7.207h3.293zM61.949 14.415c0-4.285 3.293-7.448 7.796-7.448 4.483 0 7.795 3.143 7.795 7.448 0 4.304-3.312 7.447-7.795 7.447-4.483-.02-7.796-3.183-7.796-7.447zm12.259 0c0-2.743-1.904-4.605-4.463-4.605-2.56 0-4.464 1.862-4.464 4.604 0 2.743 1.905 4.605 4.464 4.605 2.558 0 4.463-1.882 4.463-4.604zM21.029 15.988c.902 0 1.634-.706 1.634-1.577 0-.87-.732-1.577-1.634-1.577-.903 0-1.635.706-1.635 1.577 0 .87.732 1.577 1.635 1.577z" fill="#fff"/></svg></svg>